<svg width="20" height="20" viewBox="0 0 20 20" fill="none" xmlns="http://www.w3.org/2000/svg">
<path d="M17.0703 -7.46167e-07L2.92969 -1.28061e-07C1.31439 -5.74539e-08 5.74539e-08 1.31439 1.28061e-07 2.92969L7.46167e-07 17.0703C8.16774e-07 18.6856 1.31439 20 2.92969 20L8.82813 20L8.82813 12.9297L6.48438 12.9297L6.48438 9.41406L8.82813 9.41406L8.82813 7.03125C8.82813 5.09262 10.4051 3.51562 12.3438 3.51562L15.8984 3.51562L15.8984 7.03125L12.3438 7.03125L12.3438 9.41406L15.8984 9.41406L15.3125 12.9297L12.3438 12.9297L12.3438 20L17.0703 20C18.6856 20 20 18.6856 20 17.0703L20 2.92969C20 1.31439 18.6856 -8.16774e-07 17.0703 -7.46167e-07Z" fill="black"/>
</svg>
