<svg width="20" height="19" viewBox="0 0 20 19" fill="none" xmlns="http://www.w3.org/2000/svg">
<path d="M9.99951 -2.34446e-06C15.5245 -2.10296e-06 19.9995 4.36167 19.9995 9.74107C19.9995 14.0457 17.1345 17.6962 13.162 18.9832C12.662 19.0749 12.4787 18.7734 12.4787 18.5148C12.4787 18.2835 12.487 17.6706 12.4912 16.8585C15.2728 17.4459 15.8595 15.5517 15.8595 15.5517C16.3145 14.4274 16.972 14.1267 16.972 14.1267C17.8778 13.5228 16.902 13.5352 16.902 13.5352C15.8978 13.603 15.3703 14.5389 15.3703 14.5389C14.4787 16.0283 13.0295 15.5979 12.4578 15.3493C12.3678 14.719 12.1103 14.2903 11.8245 14.0466C14.0453 13.8029 16.3795 12.9652 16.3795 9.23303C16.3795 8.16988 15.992 7.30084 15.3503 6.61933C15.4628 6.37316 15.8003 5.3827 15.2628 4.04116C15.2628 4.04116 14.4253 3.78012 12.5128 5.03988C11.7128 4.82345 10.8628 4.71606 10.0128 4.7111C9.16284 4.71606 8.31284 4.82345 7.51284 5.03988C5.61284 3.78011 4.77535 4.04115 4.77535 4.04115C4.23785 5.3827 4.57535 6.37316 4.67535 6.61933C4.03785 7.30084 3.65035 8.16988 3.65035 9.23303C3.65035 12.9752 5.98784 13.7987 8.21284 14.0383C7.86284 14.3307 7.53784 14.928 7.53784 15.8408C7.53784 17.1444 7.55034 18.1918 7.55034 18.5082C7.55034 18.7635 7.37534 19.0683 6.86284 18.9708C2.86201 17.692 -0.000488895 14.0391 -0.000488707 9.74107C-0.000488472 4.36167 4.47701 -2.58586e-06 9.99951 -2.34446e-06Z" fill="#212121"/>
</svg>
